<?xml version="1.0" standalone="no"?>
<!DOCTYPE svg PUBLIC "-//W3C//DTD SVG 20010904//EN"
 "http://www.w3.org/TR/2001/REC-SVG-20010904/DTD/svg10.dtd">
<svg version="1.0" xmlns="http://www.w3.org/2000/svg"
 width="900.000000pt" height="900.000000pt" viewBox="0 0 900.000000 900.000000"
 preserveAspectRatio="xMidYMid meet">
<metadata>
Created by potrace 1.10, written by Peter Selinger 2001-2011
</metadata>
<g transform="translate(0.000000,900.000000) scale(0.100000,-0.100000)"
fill="#000000" stroke="none">
<path d="M2355 7653 c-212 -43 -382 -128 -521 -260 -54 -52 -137 -152 -171
-208 -29 -47 -113 -225 -113 -240 0 -9 -5 -26 -12 -38 -6 -12 -15 -42 -19 -67
-4 -25 -12 -70 -18 -102 -17 -81 -10 -2581 7 -2693 26 -167 44 -272 57 -325
25 -103 35 -145 51 -195 8 -27 19 -63 24 -80 15 -52 32 -99 46 -128 8 -16 14
-35 14 -42 0 -7 6 -26 14 -42 8 -15 21 -44 30 -63 28 -65 118 -245 137 -275
10 -16 23 -39 29 -50 6 -11 19 -33 30 -50 11 -16 23 -37 27 -45 21 -44 151
-223 237 -325 79 -94 254 -271 330 -333 38 -31 77 -64 86 -73 27 -25 178 -139
185 -139 4 0 24 -13 44 -28 20 -16 43 -32 51 -35 8 -4 29 -16 45 -27 17 -11
39 -24 50 -30 11 -6 34 -19 50 -29 31 -20 214 -112 273 -137 17 -8 47 -20 65
-28 17 -8 41 -16 52 -19 11 -3 45 -15 75 -27 58 -22 132 -45 190 -59 87 -21
139 -34 186 -47 28 -8 65 -14 82 -14 17 0 64 -8 104 -17 110 -25 699 -25 848
0 184 31 332 64 415 93 23 8 48 14 57 14 10 0 32 6 50 14 18 8 53 22 78 31 25
10 63 24 85 33 44 16 161 69 185 82 8 5 51 27 95 50 88 45 91 46 183 107 35
24 65 43 68 43 6 0 193 141 264 199 93 76 323 309 396 400 38 47 71 88 74 91
20 19 171 242 200 295 6 11 26 47 45 80 57 98 137 269 178 380 8 22 22 58 30
80 8 22 23 67 32 100 10 33 24 78 31 100 8 23 14 49 14 58 0 10 6 39 14 65 8
26 21 90 29 142 9 52 22 129 28 170 10 56 14 403 17 1380 3 1183 2 1313 -13
1390 -38 194 -97 329 -214 485 -48 66 -150 167 -193 193 -16 9 -28 20 -28 24
0 4 -4 8 -10 8 -5 0 -26 12 -47 26 -163 111 -473 180 -643 143 -25 -5 -63 -12
-85 -15 -148 -23 -353 -129 -493 -257 -63 -58 -180 -218 -221 -302 -19 -38
-40 -82 -47 -97 -8 -14 -14 -34 -14 -44 0 -10 -6 -36 -14 -59 -34 -97 -48
-301 -26 -371 27 -86 59 -130 125 -172 36 -24 50 -27 130 -27 80 0 94 3 131
27 54 35 98 89 113 140 7 23 15 93 18 157 7 172 36 245 137 344 30 29 74 63
97 75 24 13 51 26 59 31 79 43 93 46 214 45 115 0 124 -2 185 -32 94 -47 218
-153 242 -207 5 -11 13 -27 18 -35 19 -31 35 -77 47 -130 19 -84 19 -2433 -1
-2620 -20 -196 -66 -410 -111 -518 -8 -18 -14 -40 -14 -50 0 -9 -7 -26 -15
-36 -8 -11 -15 -28 -15 -37 0 -10 -6 -30 -14 -46 -7 -15 -20 -44 -29 -63 -26
-61 -118 -244 -138 -275 -10 -16 -22 -37 -26 -45 -39 -83 -212 -300 -348 -436
-126 -126 -344 -299 -425 -337 -8 -4 -28 -16 -45 -26 -28 -18 -102 -60 -149
-84 -12 -5 -28 -14 -36 -19 -8 -4 -22 -11 -30 -14 -20 -8 -81 -35 -102 -45
-56 -28 -250 -90 -383 -123 -204 -50 -488 -82 -644 -72 -270 18 -498 54 -626
97 -16 6 -43 14 -60 19 -46 13 -161 54 -210 75 -68 29 -244 117 -300 150 -33
19 -67 38 -75 42 -21 10 -138 91 -185 127 -69 54 -190 160 -250 221 -99 99
-303 362 -338 435 -4 8 -16 29 -27 45 -19 30 -112 215 -135 270 -7 17 -19 46
-27 65 -39 90 -86 231 -107 320 -5 19 -13 55 -19 80 -61 259 -62 284 -62 1640
1 1328 -1 1279 56 1390 33 65 163 197 219 224 22 10 54 26 70 34 23 13 59 16
155 16 124 -1 126 -1 200 -38 41 -20 86 -43 99 -51 33 -18 151 -134 151 -148
0 -6 6 -18 13 -26 24 -30 45 -125 52 -240 10 -165 39 -231 128 -289 38 -24 51
-27 132 -27 77 0 95 3 127 23 95 59 141 154 140 287 -4 400 -228 760 -579 934
-197 98 -428 133 -618 94z"/>
<path d="M4195 5255 c-33 -8 -71 -15 -85 -15 -14 -1 -45 -12 -70 -25 -25 -13
-54 -28 -65 -33 -39 -19 -175 -176 -175 -202 0 -6 -6 -21 -14 -33 -7 -12 -19
-57 -26 -100 -10 -63 -11 -92 -1 -150 12 -69 33 -135 52 -167 5 -8 14 -26 19
-38 13 -30 116 -134 152 -153 89 -48 176 -89 186 -89 7 0 31 -9 52 -20 l40
-20 0 -498 c0 -555 -1 -546 69 -617 39 -39 115 -75 160 -75 46 0 128 40 166
82 64 71 65 79 65 623 l0 485 33 20 c17 11 40 20 49 20 14 0 51 15 98 42 8 4
24 12 36 17 47 21 118 72 157 114 53 57 117 180 117 227 0 11 5 42 11 67 13
51 -1 166 -27 216 -8 16 -14 33 -14 37 0 11 -57 97 -84 128 -35 39 -129 107
-171 124 -78 31 -179 41 -425 44 -181 2 -261 -1 -305 -11z"/>
</g>
</svg>
